<svg xmlns="http://www.w3.org/2000/svg" viewBox="0 0 600 600" width="600" height="600" role="img"><rect width="600" height="600" fill="#b8213c"/><rect x="14" y="14" width="572" height="572" fill="none" stroke="#6f1425" stroke-width="2" opacity="0.45"/><path d="M170 470 C 90 380, 240 350, 250 290 C 262 220, 120 200, 200 130 C 260 80, 400 110, 420 190 C 436 250, 340 260, 350 310 C 360 360, 480 340, 470 430" fill="none" stroke="#16161d" stroke-width="40" stroke-linecap="round"/>
<path d="M170 470 C 90 380, 240 350, 250 290 C 262 220, 120 200, 200 130 C 260 80, 400 110, 420 190 C 436 250, 340 260, 350 310 C 360 360, 480 340, 470 430" fill="none" stroke="#b8213c" stroke-width="8" stroke-dasharray="2 22" stroke-linecap="round"/>
<circle cx="470" cy="430" r="26" fill="#f1ede2"/><circle cx="478" cy="424" r="6" fill="#b8213c"/><text x="300" y="560" text-anchor="middle" font-family="Segoe UI, Arial, sans-serif" font-size="22" letter-spacing="6" fill="#6f1425">BLACKWORK</text></svg>